{
  "accessors": [
    {
      "bufferView": 2,
      "componentType": 5126,
      "count": 1051,
      "max": [
        27.194995880126953,
        14.68585205078125,
        79.30435180664063
      ],
      "min": [
        -13.93941879272461,
        -14.691452026367188,
        -7.235992431640625
      ],
      "type": "VEC3"
    },
    {
      "bufferView": 2,
      "byteOffset": 12612,
      "componentType": 5126,
      "count": 1051,
      "max": [
        1.0,
        1.0,
        1.0
      ],
      "min": [
        -1.0,
        -1.0,
        -1.0
      ],
      "type": "VEC3"
    },
    {
      "bufferView": 3,
      "componentType": 5126,
      "count": 1051,
      "max": [
        1.0,
        1.0,
        1.0,
        1.0
      ],
      "min": [
        -1.0,
        -1.0,
        -1.0,
        -1.0
      ],
      "type": "VEC4"
    },
    {
      "bufferView": 1,
      "componentType": 5126,
      "count": 1051,
      "max": [
        1.798841953277588,
        0.9799572825431824
      ],
      "min": [
        0.003953124862164259,
        0.003953124862164259
      ],
      "type": "VEC2"
    },
    {
      "bufferView": 0,
      "componentType": 5125,
      "count": 3546,
      "type": "SCALAR"
    },
    {
      "bufferView": 2,
      "byteOffset": 25224,
      "componentType": 5126,
      "count": 1272,
      "max": [
        23.44445037841797,
        9.94308090209961,
        30.520206451416016
      ],
      "min": [
        -11.884187698364258,
        -57.436527252197266,
        1.7923812866210938
      ],
      "type": "VEC3"
    },
    {
      "bufferView": 2,
      "byteOffset": 40488,
      "componentType": 5126,
      "count": 1272,
      "max": [
        1.0,
        1.0,
        1.0
      ],
      "min": [
        -1.0,
        -1.0,
        -1.0
      ],
      "type": "VEC3"
    },
    {
      "bufferView": 3,
      "byteOffset": 16816,
      "componentType": 5126,
      "count": 1272,
      "max": [
        1.0,
        1.0,
        1.0,
        1.0
      ],
      "min": [
        -1.0,
        -1.0,
        -1.0,
        1.0
      ],
      "type": "VEC4"
    },
    {
      "bufferView": 1,
      "byteOffset": 8408,
      "componentType": 5126,
      "count": 1272,
      "max": [
        0.9838489890098572,
        0.9787129759788513
      ],
      "min": [
        0.003953124862164259,
        0.003953124862164259
      ],
      "type": "VEC2"
    },
    {
      "bufferView": 0,
      "byteOffset": 14184,
      "componentType": 5125,
      "count": 4476,
      "type": "SCALAR"
    },
    {
      "bufferView": 2,
      "byteOffset": 55752,
      "componentType": 5126,
      "count": 3085,
      "max": [
        0.28733015060424805,
        0.5368123650550842,
        1.3079184293746948
      ],
      "min": [
        -0.31374284625053406,
        -0.5368123650550842,
        0.5060325264930725
      ],
      "type": "VEC3"
    },
    {
      "bufferView": 2,
      "byteOffset": 92772,
      "componentType": 5126,
      "count": 3085,
      "max": [
        1.0,
        1.0,
        1.0
      ],
      "min": [
        -1.0,
        -1.0,
        -1.0
      ],
      "type": "VEC3"
    },
    {
      "bufferView": 3,
      "byteOffset": 37168,
      "componentType": 5126,
      "count": 3085,
      "max": [
        1.0,
        1.0,
        1.0,
        1.0
      ],
      "min": [
        -1.0,
        -1.0,
        -1.0,
        -1.0
      ],
      "type": "VEC4"
    },
    {
      "bufferView": 1,
      "byteOffset": 18584,
      "componentType": 5126,
      "count": 3085,
      "max": [
        1.9930438995361328,
        0.9955914616584778
      ],
      "min": [
        0.003953124862164259,
        0.003953124862164259
      ],
      "type": "VEC2"
    },
    {
      "bufferView": 0,
      "byteOffset": 32088,
      "componentType": 5125,
      "count": 10068,
      "type": "SCALAR"
    },
    {
      "bufferView": 2,
      "byteOffset": 129792,
      "componentType": 5126,
      "count": 228,
      "max": [
        -0.10864973068237305,
        0.0808645635843277,
        1.0913640260696411
      ],
      "min": [
        -0.31374284625053406,
        -0.0808645635843277,
        0.8255360722541809
      ],
      "type": "VEC3"
    },
    {
      "bufferView": 2,
      "byteOffset": 132528,
      "componentType": 5126,
      "count": 228,
      "max": [
        1.0,
        1.0,
        1.0
      ],
      "min": [
        -1.0,
        -1.0,
        -1.0
      ],
      "type": "VEC3"
    },
    {
      "bufferView": 3,
      "byteOffset": 86528,
      "componentType": 5126,
      "count": 228,
      "max": [
        1.0,
        0.999998152256012,
        0.9996217489242554,
        1.0
      ],
      "min": [
        -0.9998098015785217,
        -1.0,
        -0.9994919300079346,
        1.0
      ],
      "type": "VEC4"
    },
    {
      "bufferView": 1,
      "byteOffset": 43264,
      "componentType": 5126,
      "count": 228,
      "max": [
        0.9677311778068542,
        0.9958653450012207
      ],
      "min": [
        0.019971739500761032,
        0.003953124862164259
      ],
      "type": "VEC2"
    },
    {
      "bufferView": 0,
      "byteOffset": 72360,
      "componentType": 5125,
      "count": 522,
      "type": "SCALAR"
    },
    {
      "bufferView": 2,
      "byteOffset": 135264,
      "componentType": 5126,
      "count": 1046,
      "max": [
        15.673588752746582,
        149.09603881835938,
        10.869874954223633
      ],
      "min": [
        -7.332632064819336,
        125.852783203125,
        -10.869874954223633
      ],
      "type": "VEC3"
    },
    {
      "bufferView": 2,
      "byteOffset": 147816,
      "componentType": 5126,
      "count": 1046,
      "max": [
        0.9999780058860779,
        0.9999999403953552,
        0.9995835423469543
      ],
      "min": [
        -0.9999871253967285,
        -1.0,
        -0.9995835423469543
      ],
      "type": "VEC3"
    },
    {
      "bufferView": 3,
      "byteOffset": 90176,
      "componentType": 5126,
      "count": 1046,
      "max": [
        0.9996362924575806,
        0.9999910593032837,
        1.0,
        1.0
      ],
      "min": [
        -0.9996400475502014,
        -0.9999707937240601,
        -1.0,
        1.0
      ],
      "type": "VEC4"
    },
    {
      "bufferView": 1,
      "byteOffset": 45088,
      "componentType": 5126,
      "count": 1046,
      "max": [
        0.9850221872329712,
        0.9960469007492065
      ],
      "min": [
        0.003953124862164259,
        0.003953124862164259
      ],
      "type": "VEC2"
    },
    {
      "bufferView": 0,
      "byteOffset": 74448,
      "componentType": 5125,
      "count": 4212,
      "type": "SCALAR"
    },
    {
      "bufferView": 2,
      "byteOffset": 160368,
      "componentType": 5126,
      "count": 1051,
      "max": [
        0.2719499468803406,
        0.7930434942245483,
        0.14685854315757751
      ],
      "min": [
        -0.13939417898654938,
        -0.07235991954803467,
        -0.14691448211669922
      ],
      "type": "VEC3"
    },
    {
      "bufferView": 2,
      "byteOffset": 172980,
      "componentType": 5126,
      "count": 1051,
      "max": [
        1.0,
        1.0,
        1.0
      ],
      "min": [
        -1.0,
        -1.0,
        -1.0
      ],
      "type": "VEC3"
    },
    {
      "bufferView": 3,
      "byteOffset": 106912,
      "componentType": 5126,
      "count": 1051,
      "max": [
        1.0,
        1.0,
        1.0,
        1.0
      ],
      "min": [
        -1.0,
        -1.0,
        -1.0,
        -1.0
      ],
      "type": "VEC4"
    },
    {
      "bufferView": 1,
      "byteOffset": 53456,
      "componentType": 5126,
      "count": 1051,
      "max": [
        1.798841953277588,
        0.9799572825431824
      ],
      "min": [
        0.003953124862164259,
        0.003953124862164259
      ],
      "type": "VEC2"
    },
    {
      "bufferView": 0,
      "byteOffset": 91296,
      "componentType": 5125,
      "count": 3546,
      "type": "SCALAR"
    },
    {
      "bufferView": 2,
      "byteOffset": 185592,
      "componentType": 5126,
      "count": 1272,
      "max": [
        23.44445037841797,
        9.94308090209961,
        -1.7923812866210938
      ],
      "min": [
        -11.884187698364258,
        -57.436527252197266,
        -30.520206451416016
      ],
      "type": "VEC3"
    },
    {
      "bufferView": 2,
      "byteOffset": 200856,
      "componentType": 5126,
      "count": 1272,
      "max": [
        1.0,
        1.0,
        1.0
      ],
      "min": [
        -1.0,
        -1.0,
        -1.0
      ],
      "type": "VEC3"
    },
    {
      "bufferView": 3,
      "byteOffset": 123728,
      "componentType": 5126,
      "count": 1272,
      "max": [
        1.0,
        1.0,
        1.0,
        1.0
      ],
      "min": [
        -1.0,
        -1.0,
        -1.0,
        -1.0
      ],
      "type": "VEC4"
    },
    {
      "bufferView": 1,
      "byteOffset": 61864,
      "componentType": 5126,
      "count": 1272,
      "max": [
        1.983849048614502,
        0.9787129759788513
      ],
      "min": [
        1.0039530992507935,
        0.003953124862164259
      ],
      "type": "VEC2"
    },
    {
      "bufferView": 0,
      "byteOffset": 105480,
      "componentType": 5125,
      "count": 4476,
      "type": "SCALAR"
    }
  ],
  "asset": {
    "extras": {
      "author": "soidev (https://sketchfab.com/soidev)",
      "license": "CC-BY-4.0 (http://creativecommons.org/licenses/by/4.0/)",
      "source": "https://sketchfab.com/3d-models/ld-robot-a03005da9a124719a04a1901e4177b55",
      "title": "LD Robot"
    },
    "generator": "Sketchfab-12.64.0",
    "version": "2.0"
  },
  "bufferViews": [
    {
      "buffer": 0,
      "byteLength": 123384,
      "name": "floatBufferViews",
      "target": 34963
    },
    {
      "buffer": 0,
      "byteLength": 72040,
      "byteOffset": 123384,
      "byteStride": 8,
      "name": "floatBufferViews",
      "target": 34962
    },
    {
      "buffer": 0,
      "byteLength": 216120,
      "byteOffset": 195424,
      "byteStride": 12,
      "name": "floatBufferViews",
      "target": 34962
    },
    {
      "buffer": 0,
      "byteLength": 144080,
      "byteOffset": 411544,
      "byteStride": 16,
      "name": "floatBufferViews",
      "target": 34962
    }
  ],
  "buffers": [
    {
      "byteLength": 555624,
      "uri": "scene.bin"
    }
  ],
  "images": [
    {
      "uri": "textures/Robot_baseColor.png"
    },
    {
      "uri": "textures/Robot_metallicRoughness.png"
    },
    {
      "uri": "textures/Robot_emissive.png"
    },
    {
      "uri": "textures/Robot_normal.png"
    }
  ],
  "materials": [
    {
      "doubleSided": true,
      "emissiveFactor": [
        1.0,
        1.0,
        1.0
      ],
      "emissiveTexture": {
        "index": 2
      },
      "name": "Robot",
      "normalTexture": {
        "index": 3
      },
      "occlusionTexture": {
        "index": 1
      },
      "pbrMetallicRoughness": {
        "baseColorTexture": {
          "index": 0
        },
        "metallicRoughnessTexture": {
          "index": 1
        }
      }
    }
  ],
  "meshes": [
    {
      "name": "Bobert_hands_Robot_0",
      "primitives": [
        {
          "attributes": {
            "NORMAL": 1,
            "POSITION": 0,
            "TANGENT": 2,
            "TEXCOORD_0": 3
          },
          "indices": 4,
          "material": 0,
          "mode": 4
        }
      ]
    },
    {
      "name": "Robot_Legs_Robot_0",
      "primitives": [
        {
          "attributes": {
            "NORMAL": 6,
            "POSITION": 5,
            "TANGENT": 7,
            "TEXCOORD_0": 8
          },
          "indices": 9,
          "material": 0,
          "mode": 4
        }
      ]
    },
    {
      "name": "Bobert_Body_Robot_0",
      "primitives": [
        {
          "attributes": {
            "NORMAL": 11,
            "POSITION": 10,
            "TANGENT": 12,
            "TEXCOORD_0": 13
          },
          "indices": 14,
          "material": 0,
          "mode": 4
        }
      ]
    },
    {
      "name": "Bobert_Rockets_Robot_0",
      "primitives": [
        {
          "attributes": {
            "NORMAL": 16,
            "POSITION": 15,
            "TANGENT": 17,
            "TEXCOORD_0": 18
          },
          "indices": 19,
          "material": 0,
          "mode": 4
        }
      ]
    },
    {
      "name": "Bobert_Head_Robot_0",
      "primitives": [
        {
          "attributes": {
            "NORMAL": 21,
            "POSITION": 20,
            "TANGENT": 22,
            "TEXCOORD_0": 23
          },
          "indices": 24,
          "material": 0,
          "mode": 4
        }
      ]
    },
    {
      "name": "Bobert_hands.001_Robot_0",
      "primitives": [
        {
          "attributes": {
            "NORMAL": 26,
            "POSITION": 25,
            "TANGENT": 27,
            "TEXCOORD_0": 28
          },
          "indices": 29,
          "material": 0,
          "mode": 4
        }
      ]
    },
    {
      "name": "Robot_Legs.001_Robot_0",
      "primitives": [
        {
          "attributes": {
            "NORMAL": 31,
            "POSITION": 30,
            "TANGENT": 32,
            "TEXCOORD_0": 33
          },
          "indices": 34,
          "material": 0,
          "mode": 4
        }
      ]
    }
  ],
  "nodes": [
    {
      "children": [
        1
      ],
      "matrix": [
        1.0,
        0.0,
        0.0,
        0.0,
        0.0,
        2.220446049250313e-16,
        -1.0,
        0.0,
        0.0,
        1.0,
        2.220446049250313e-16,
        0.0,
        0.0,
        0.0,
        0.0,
        1.0
      ],
      "name": "Sketchfab_model"
    },
    {
      "children": [
        2
      ],
      "matrix": [
        1.0,
        0.0,
        0.0,
        0.0,
        0.0,
        0.0,
        1.0,
        0.0,
        0.0,
        -1.0,
        0.0,
        0.0,
        0.0,
        0.0,
        0.0,
        1.0
      ],
      "name": "Robert.fbx"
    },
    {
      "children": [
        3,
        5,
        7,
        9,
        11,
        13,
        15
      ],
      "name": "RootNode"
    },
    {
      "children": [
        4
      ],
      "matrix": [
        1.0,
        -1.9229626518697852e-16,
        -1.1102231569740548e-16,
        0.0,
        1.9229624866934158e-16,
        0.49999976828665293,
        0.8660255375641607,
        0.0,
        -1.1102234430678308e-16,
        -0.8660255375641607,
        0.49999976828665293,
        0.0,
        1.1175870895385742e-05,
        113.02578735351563,
        44.21215057373047,
        1.0
      ],
      "name": "Bobert_hands"
    },
    {
      "mesh": 0,
      "name": "Bobert_hands_Robot_0"
    },
    {
      "children": [
        6
      ],
      "matrix": [
        1.0,
        0.0,
        0.0,
        0.0,
        0.0,
        0.9999999999999867,
        1.6292067073209113e-07,
        0.0,
        0.0,
        -1.6292067073209113e-07,
        0.9999999999999867,
        0.0,
        0.0,
        57.436527252197266,
        9.406359822605737e-06,
        1.0
      ],
      "name": "Robot_Legs"
    },
    {
      "mesh": 1,
      "name": "Robot_Legs_Robot_0"
    },
    {
      "children": [
        8
      ],
      "matrix": [
        100.0,
        0.0,
        0.0,
        0.0,
        0.0,
        -1.629206793918314e-05,
        -99.99999999999868,
        0.0,
        0.0,
        99.99999999999868,
        -1.629206793918314e-05,
        0.0,
        0.0,
        0.0,
        0.0,
        1.0
      ],
      "name": "Bobert_Body"
    },
    {
      "mesh": 2,
      "name": "Bobert_Body_Robot_0"
    },
    {
      "children": [
        10
      ],
      "matrix": [
        100.0,
        0.0,
        0.0,
        0.0,
        0.0,
        -1.629206793918314e-05,
        -99.99999999999868,
        0.0,
        0.0,
        99.99999999999868,
        -1.629206793918314e-05,
        0.0,
        0.0,
        0.0,
        0.0,
        1.0
      ],
      "name": "Bobert_Rockets"
    },
    {
      "mesh": 3,
      "name": "Bobert_Rockets_Robot_0"
    },
    {
      "children": [
        12
      ],
      "matrix": [
        1.0,
        0.0,
        0.0,
        0.0,
        0.0,
        0.9999999999999867,
        1.6292067073209113e-07,
        0.0,
        0.0,
        -1.6292067073209113e-07,
        0.9999999999999867,
        0.0,
        0.0,
        0.0,
        0.0,
        1.0
      ],
      "name": "Bobert_Head"
    },
    {
      "mesh": 4,
      "name": "Bobert_Head_Robot_0"
    },
    {
      "children": [
        14
      ],
      "matrix": [
        100.0,
        1.922963048916479e-14,
        -1.1102232893229529e-14,
        0.0,
        1.1102235755663333e-14,
        -86.60254998152257,
        -49.999983366976075,
        0.0,
        -1.9229628836537498e-14,
        49.999983366976075,
        -86.60254998152257,
        0.0,
        1.1175870895385742e-05,
        113.02578735351563,
        -44.21215057373047,
        1.0
      ],
      "name": "Bobert_hands.001"
    },
    {
      "mesh": 5,
      "name": "Bobert_hands.001_Robot_0"
    },
    {
      "children": [
        16
      ],
      "matrix": [
        1.0,
        0.0,
        0.0,
        0.0,
        0.0,
        0.9999999999999867,
        1.6292067073209113e-07,
        0.0,
        0.0,
        -1.6292067073209113e-07,
        0.9999999999999867,
        0.0,
        0.0,
        57.436527252197266,
        9.406359822605737e-06,
        1.0
      ],
      "name": "Robot_Legs.001"
    },
    {
      "mesh": 6,
      "name": "Robot_Legs.001_Robot_0"
    }
  ],
  "samplers": [
    {
      "magFilter": 9729,
      "minFilter": 9987,
      "wrapS": 10497,
      "wrapT": 10497
    }
  ],
  "scene": 0,
  "scenes": [
    {
      "name": "Sketchfab_Scene",
      "nodes": [
        0
      ]
    }
  ],
  "textures": [
    {
      "sampler": 0,
      "source": 0
    },
    {
      "sampler": 0,
      "source": 1
    },
    {
      "sampler": 0,
      "source": 2
    },
    {
      "sampler": 0,
      "source": 3
    }
  ]
}
